# Blender 3.3.0
# www.blender.org
o Cube
v -1.000000 -1.000000 -1.000000
v -1.000000 1.000000 -1.000000
v -1.000000 -1.000000 1.000000
v -1.000000 1.000000 1.000000
v 1.000000 -1.000000 -1.000000
v 1.000000 1.000000 -1.000000
v 1.000000 -1.000000 1.000000
v 1.000000 1.000000 1.000000
vn -0.0000 1.0000 -0.0000
vn -0.0000 -0.0000 -1.0000
vn -1.0000 -0.0000 -0.0000
vn -0.0000 -1.0000 -0.0000
vn 1.0000 -0.0000 -0.0000
vn -0.0000 -0.0000 1.0000
vt 0.250869 0.999111
vt 0.000272 0.664772
vt 0.999470 0.666021
vt 0.000071 0.334027
vt 0.250490 0.000967
vt 0.999545 0.334644
vt 0.251146 0.664645
vt 0.250069 0.333989
vt 0.499504 0.999136
vt 0.749957 0.666010
vt 0.499506 0.000737
vt 0.749957 0.334637
vt 0.499504 0.666010
vt 0.499493 0.334624
s 0
f 3/7/1 5/9/1 1/1/1
f 8/14/2 3/7/2 4/8/2
f 6/12/3 7/13/3 8/14/3
f 8/14/4 2/5/4 6/11/4
f 4/8/5 1/2/5 2/4/5
f 2/6/6 5/10/6 6/12/6
f 3/7/1 7/13/1 5/9/1
f 8/14/2 7/13/2 3/7/2
f 6/12/3 5/10/3 7/13/3
f 8/14/4 4/8/4 2/5/4
f 4/8/5 3/7/5 1/2/5
f 2/6/6 1/3/6 5/10/6
